<svg xmlns="http://www.w3.org/2000/svg" width="16" height="16" fill="currentColor" viewBox="0 0 16 16">
  <path d="M 16 8 C 16 14.158 9.333 18.007 4 14.928 C 1.525 13.499 0 10.858 0 8 C 0 1.842 6.667 -2.007 12 1.072 C 14.475 2.501 16 5.142 16 8 M 5.697 12.354 C 7.801 12.354 8.82 10.89 8.82 8.054 C 8.82 4.907 7.361 4.04 5.85 4.04 C 4.22 4.04 2.979 5.06 2.979 6.77 C 2.979 8.476 4.15 9.437 5.545 9.437 C 6.605 9.437 7.245 8.88 7.479 8.253 L 7.555 8.253 C 7.602 9.923 7.08 11.276 5.721 11.276 C 5.011 11.276 4.572 10.913 4.473 10.556 L 3.178 10.556 C 3.272 11.464 4.104 12.354 5.698 12.354 L 5.697 12.354 Z M 5.815 8.382 C 6.623 8.382 7.35 7.854 7.35 6.788 C 7.35 5.722 6.682 5.112 5.79 5.112 C 4.952 5.112 4.273 5.728 4.273 6.771 C 4.273 7.843 4.981 8.381 5.813 8.381 L 5.815 8.382 L 14.034 7.876 L 12.364 7.875 L 12.365 7.875 C 12.365 7.878 12.367 5.747 12.365 5.743 C 12.362 5.742 11.505 5.74 11.498 5.741 C 11.5 5.74 11.493 7.872 11.492 7.873 C 11.491 7.874 9.809 7.861 9.807 7.869 C 9.806 7.873 9.796 8.713 9.797 8.709 L 11.485 8.729 C 11.49 8.727 11.483 10.572 11.486 10.575 C 11.484 10.573 12.348 10.577 12.345 10.577 L 12.345 8.73 C 12.345 8.733 14.037 8.733 14.035 8.733 C 14.037 8.733 14.036 7.875 14.034 7.876 L 5.815 8.382 Z"/>
</svg>